<?xml version="1.0" encoding="utf-8"?>
<!-- Generator: Adobe Illustrator 17.1.0, SVG Export Plug-In . SVG Version: 6.00 Build 0)  -->
<!DOCTYPE svg PUBLIC "-//W3C//DTD SVG 1.1//EN" "http://www.w3.org/Graphics/SVG/1.1/DTD/svg11.dtd">
<svg version="1.1" id="Layer_1" xmlns="http://www.w3.org/2000/svg" xmlns:xlink="http://www.w3.org/1999/xlink" x="0px" y="0px"
	 viewBox="0 0 132 275.9" style="enable-background:new 0 0 132 275.9;" xml:space="preserve">
<style type="text/css">
	.st0{fill:#FFFFFF;stroke:#B3B4B4;stroke-width:2;}
	.st1{fill:none;stroke:#B3B4B4;}
</style>
<g id="Page-1" >
	<g id="iphone" transform="translate(576.000000, 177.000000)" >
		<path id="bezel_2_"  class="st0" d="M-445,81.9c0,8.8-7.2,16-16.1,16h-97.9c-8.9,0-16.1-7.2-16.1-16
			V-160c0-8.8,7.2-16,16.1-16h97.9c8.9,0,16.1,7.2,16.1,16V81.9L-445,81.9z"/>
		<path id="speaker"  class="st1" d="M-498-150.3c0,0.6-0.4,1.1-1,1.1h-20.1c-0.5,0-1-0.5-1-1.1v-2.6
			c0-0.6,0.4-1.1,1-1.1h20.1c0.5,0,1,0.5,1,1.1V-150.3L-498-150.3z"/>
		<circle id="camera_1_"  class="st1" cx="-509" cy="-164.1" r="3">
		</circle>
		<ellipse id="lock_1_"  class="st1" cx="-510" cy="77.9" rx="10" ry="10">
		</ellipse>
	</g>
</g>
</svg>
