<?xml version="1.0" encoding="utf-8"?>
<!-- Generator: Adobe Illustrator 17.1.0, SVG Export Plug-In . SVG Version: 6.00 Build 0)  -->
<!DOCTYPE svg PUBLIC "-//W3C//DTD SVG 1.1//EN" "http://www.w3.org/Graphics/SVG/1.1/DTD/svg11.dtd">
<svg version="1.1" id="Layer_1" xmlns="http://www.w3.org/2000/svg" xmlns:xlink="http://www.w3.org/1999/xlink" x="0px" y="0px"
	 viewBox="0 0 127.4 34.5" style="enable-background:new 0 0 127.4 34.5;" xml:space="preserve">
<style type="text/css">
	.st0{fill:#F26A6B;}
</style>
<g>
	<g id="Schoold_3_">
		<path id="S_3_" class="st0" d="M17.1,20.8c0-4.3-5.3-4.7-5.5-4.8c-2.6-0.4-4.1-1.6-4.1-3.5c0-3.7,5.1-5.3,8.1-2.2
			c0.3,0.3,0.7,0.3,0.9,0c0.3-0.2,0.3-0.7,0-0.9c-3-3.3-10.5-2.5-10.4,3.2c0,2.4,1.8,4,4.8,4.6c1.1,0.2,4.9,0.8,4.8,3.6
			c-0.1,3.7-5.1,5.3-8.1,2.2c-0.3-0.3-0.7-0.3-0.9,0c-0.3,0.2-0.3,0.7,0,0.9C9.6,27.2,17.1,26.4,17.1,20.8z"/>
		<path id="c_1_" class="st0" d="M25,24.6c-1.5,0-2.8-0.5-3.9-1.6c-1.1-1.1-1.6-2.4-1.6-3.9c0-1.5,0.5-2.8,1.6-3.9
			c1.1-1.1,2.4-1.6,3.9-1.6c1.3,0,2.6,0.5,3.6,1.4c0.3,0.2,0.6,0.2,0.9,0l0,0c0.3-0.3,0.2-0.7,0-0.9c-1.3-1.2-2.8-1.7-4.5-1.7
			c-1.9,0-3.5,0.7-4.8,2c-1.3,1.3-2,2.9-2,4.8c0,1.9,0.7,3.5,2,4.8c1.3,1.3,2.9,2,4.8,2c1.6,0,3.2-0.5,4.5-1.7
			c0.3-0.2,0.3-0.7,0-0.9l0,0c-0.2-0.2-0.6-0.3-0.9,0C27.6,24.1,26.3,24.6,25,24.6z"/>
		<path id="h_3_" class="st0" d="M40.3,13.9c-1-1-2.3-1.6-3.8-1.6c-1.7,0-3,0.6-4,1.8v-6c0-0.4-0.3-0.6-0.6-0.6h0
			c-0.4,0-0.6,0.3-0.6,0.6v16.7c0,0.4,0.3,0.6,0.6,0.6h0c0.4,0,0.6-0.3,0.6-0.6v-7.2c0-1.1,0.4-2,1.2-2.8c0.8-0.8,1.7-1.2,2.8-1.2
			c1.1,0,2.1,0.4,2.8,1.2c0.8,0.8,1.2,1.7,1.2,2.8v7.2c0,0.4,0.3,0.6,0.6,0.6l0,0c0.4,0,0.6-0.3,0.6-0.6v-7.2
			C41.9,16.2,41.3,14.9,40.3,13.9z"/>
		<g>
			<path class="st0" d="M63,14.3c-1.3-1.3-2.9-2-4.8-2c-1.9,0-3.5,0.7-4.8,2c-1.3,1.3-2,2.9-2,4.8c0,1.9,0.7,3.5,2,4.8
				c1.3,1.3,2.9,2,4.8,2c1.9,0,3.5-0.7,4.8-2c1.3-1.3,2-2.9,2-4.8C65,17.3,64.4,15.6,63,14.3z M63.7,19.1c0,1.5-0.5,2.8-1.6,3.9
				c-1.1,1.1-2.4,1.6-3.9,1.6c-1.5,0-2.8-0.5-3.9-1.6c-1.1-1.1-1.6-2.4-1.6-3.9c0-1.5,0.5-2.8,1.6-3.9c1.1-1.1,2.4-1.6,3.9-1.6
				c1.5,0,2.8,0.5,3.9,1.6C63.2,16.3,63.7,17.6,63.7,19.1z"/>
			<path class="st0" d="M54.1,24.5c0.3-0.3,0.7-0.7,1-0.9c1,0.7,3.3,1.7,5.8,0.3c1.8-1,2.9-2.1,4-3.8c-0.2,1.8-1.4,3.8-3.3,4.9
				C59.6,26.2,56.4,26.3,54.1,24.5z"/>
		</g>
		<g>
			<path class="st0" d="M54.7,14.3c-1.3-1.3-2.9-2-4.8-2c-1.9,0-3.5,0.7-4.8,2c-1.3,1.3-2,2.9-2,4.8c0,1.9,0.7,3.5,2,4.8l0,0
				c1.3,1.3,2.9,2,4.8,2c1.9,0,3.5-0.7,4.8-2c1.3-1.3,2-2.9,2-4.8C56.7,17.3,56.1,15.6,54.7,14.3z M55.4,19.1c0,1.5-0.5,2.8-1.6,3.9
				c-1.1,1.1-2.4,1.6-3.9,1.6c-1.5,0-2.8-0.5-3.9-1.6c-1.1-1.1-1.6-2.4-1.6-3.9c0-1.5,0.5-2.8,1.6-3.9c1.1-1.1,2.4-1.6,3.9-1.6
				c1.5,0,2.8,0.5,3.9,1.6C54.9,16.3,55.4,17.6,55.4,19.1z"/>
			<path class="st0" d="M55.1,14.7c-0.4,0.3-0.6,0.6-1,0.9c0.8,0.9,2,3.2,0.8,5.9c-0.8,1.9-1.8,3.1-3.5,4.3c1.7-0.3,3.6-1.7,4.6-3.7
				C57.1,19.9,57.1,16.8,55.1,14.7z"/>
		</g>
		<path id="l_3_" class="st0" d="M67.3,25.5L67.3,25.5c0.4,0,0.6-0.3,0.6-0.6V8.1c0-0.4-0.3-0.6-0.6-0.6l0,0c-0.4,0-0.6,0.3-0.6,0.6
			v16.7C66.6,25.2,66.9,25.5,67.3,25.5z"/>
		<path id="d_3_" class="st0" d="M81.9,8.1v7c-0.5-0.7-1.2-1.3-2-1.8c-1.1-0.6-2.2-1-3.5-1c-1.9,0-3.5,0.7-4.8,2
			c-1.3,1.3-2,2.9-2,4.8c0,1.9,0.7,3.5,2,4.8c1.3,1.3,2.9,2,4.8,2c1.3,0,2.4-0.3,3.5-1c0.8-0.5,1.5-1.1,2-1.8v1.8
			c0,0.4,0.3,0.6,0.6,0.6l0,0c0.4,0,0.6-0.3,0.6-0.6V8.1c0-0.4-0.3-0.6-0.6-0.6l0,0C82.2,7.5,81.9,7.8,81.9,8.1z M81.9,19.1
			c0,1.5-0.5,2.8-1.6,3.9c-1.1,1.1-2.4,1.6-3.9,1.6c-1.5,0-2.8-0.5-3.9-1.6c-1.1-1.1-1.6-2.4-1.6-3.9c0-1.5,0.5-2.8,1.6-3.9
			c1.1-1.1,2.4-1.6,3.9-1.6c1.5,0,2.8,0.5,3.9,1.6C81.3,16.3,81.9,17.6,81.9,19.1z"/>
	</g>
	<g>
		<g id="LOGO_x5F_Basic_4_">
			<path class="st0" d="M103.3,28c-0.4,0-0.9-0.1-1.3-0.3l-10.2-5.2c-1.2-0.6-2-1.9-2-3.2c0-1.3,0.7-2.6,1.9-3.2l12.5-6.9
				c0.7-0.4,1.5-0.4,2.2-0.2l11.9,4.3c0.4,0.1,0.7,0.5,0.7,0.9c0,0.4-0.2,0.8-0.5,1.1l-0.3,0.2v1l0.1,0c0.4,0.1,0.7,0.5,0.7,0.9
				c0,0.4-0.1,0.8-0.5,1.1l-13.9,9.1C104.3,27.8,103.8,28,103.3,28z M105.6,10c-0.2,0-0.5,0.1-0.7,0.2l-12.5,6.9
				c-0.8,0.4-1.2,1.2-1.2,2.1c0,0.9,0.5,1.7,1.3,2.1l10.2,5.2c0.5,0.2,1.1,0.2,1.5-0.1l13.6-8.9l-0.1-0.1c-0.3-0.1-0.5-0.4-0.5-0.7
				v-0.6L104.8,24c-0.8,0.5-1.9,0.6-2.7,0.1l-9.3-4.6c-0.3-0.2-0.4-0.5-0.3-0.9c0.2-0.3,0.5-0.4,0.9-0.3l9.3,4.6
				c0.5,0.2,1,0.2,1.5-0.1l13.6-8.6l-11.6-4.2C105.9,10.1,105.7,10,105.6,10z"/>
			<path class="st0" d="M103.8,19.4c-1,0-1.9-0.2-2.4-0.4c-1.5-0.5-3-1.4-3.3-2.5c-0.1-0.3,0.1-0.7,0.5-0.8c0.3-0.1,0.7,0.1,0.8,0.5
				c0.1,0.3,1,1.1,2.4,1.6c1.6,0.5,3,0.4,3.8-0.2c0.1-0.1,0.1-0.2,0.1-0.2c0-0.3-0.9-0.9-1.3-1.2c-0.9-0.7-1.8-1.3-1.8-2.1
				c0-0.4,0.2-0.9,0.7-1.2c0.8-0.6,2.6-1.1,4.9-0.4c1.4,0.4,2.3,1.1,2.6,2c0.1,0.3-0.1,0.7-0.4,0.8c-0.3,0.1-0.7-0.1-0.8-0.4
				c-0.1-0.3-0.7-0.8-1.8-1.2c-1.4-0.4-3-0.4-3.7,0.2C104,14,104,14,104,14c0.1,0.3,0.8,0.8,1.3,1.1c0.9,0.6,1.8,1.3,1.9,2.2
				c0,0.3-0.1,0.8-0.6,1.2C105.7,19.2,104.7,19.4,103.8,19.4z"/>
		</g>
		<g id="LOGO_x5F_Basic_3_">
			<path class="st0" d="M118.4,13.3l-11.9-4.3c-0.7-0.3-1.5-0.2-2.2,0.2L91.8,16c-0.6,0.3-1.1,0.8-1.4,1.4c0,0.3,0.1,0.6,0.1,0.7
				c0.1,0.5,0.4,1,0.7,1.4c0-0.1,0-0.2,0-0.3c0-0.9,0.5-1.7,1.2-2.1l12.5-6.9c0.2-0.1,0.4-0.2,0.7-0.2c0.2,0,0.3,0,0.5,0.1l11.6,4.2
				C118.4,13.9,118.7,13.4,118.4,13.3z"/>
			<path class="st0" d="M119.2,17.4c0-0.4-0.3-0.8-0.7-0.9l-0.1,0v-1l-1.3,0.8v0.6c0,0.3,0.2,0.6,0.5,0.7l0.1,0.1l-13.6,8.9
				c-0.4,0.3,0.2,1.4,0.7,1.1l13.9-9.1C119,18.2,119.2,17.8,119.2,17.4z"/>
			<path class="st0" d="M105.7,17.5c-0.8,0.7-2.2,0.8-3.8,0.2c-1.4-0.5-2.4-1.2-2.4-1.6c-0.1-0.3-0.4-0.6-0.8-0.5
				c-0.3,0.1-0.6,0.4-0.5,0.8c0.3,1.1,1.8,2,3.3,2.5c0.5,0.2,1.4,0.4,2.4,0.4c0.9,0,1.9-0.2,2.7-0.9c0.5-0.4,0.6-0.9,0.6-1.2
				c0-0.7-0.7-1.3-1.4-1.8C106.4,16.4,106,17.1,105.7,17.5z"/>
			<path class="st0" d="M110.9,14.4c-0.3-0.8-1.2-1.5-2.6-2c-1.7-0.5-3.1-0.5-4-0.1c-0.5,0.2-0.5,1.3-0.3,1.6c0,0,0.1-0.1,0.2-0.2
				c0.8-0.6,2.3-0.7,3.7-0.2c1.1,0.3,1.6,0.8,1.8,1.2c0.1,0.3,0.5,0.5,0.8,0.4C110.8,15.1,111,14.7,110.9,14.4z"/>
		</g>
	</g>
</g>
</svg>
