<?xml version="1.0" encoding="utf-8"?>
<!-- Generator: Adobe Illustrator 21.0.0, SVG Export Plug-In . SVG Version: 6.00 Build 0)  -->
<svg version="1.1" id="Layer_1" xmlns="http://www.w3.org/2000/svg" xmlns:xlink="http://www.w3.org/1999/xlink" x="0px" y="0px"
	 viewBox="0 0 88 111" style="enable-background:new 0 0 88 111;" xml:space="preserve">
<style type="text/css">
	.st0{fill:#FFFFFF;}
	.st1{fill:#49B6C2;}
</style>
<g>
	<circle class="st0" cx="83" cy="44.1" r="5"/>
	<circle class="st0" cx="5" cy="44.1" r="5"/>
	<circle class="st0" cx="43.5" cy="5.3" r="5"/>
	<circle class="st0" cx="43.5" cy="83.5" r="5"/>
	<circle class="st0" cx="15" cy="18.3" r="5"/>
	<circle class="st0" cx="72.7" cy="18.3" r="5"/>
	<circle class="st0" cx="15" cy="70.8" r="5"/>
	<g>
		<path class="st1" d="M7.8,36.3c0.8-3.7,2.1-7.2,4-10.4c-1.4-0.6-2.7-1.6-3.6-2.9c-2.3,4-4,8.3-5,13c0.6-0.1,1.2-0.2,1.8-0.2
			C6,35.8,7,36,7.8,36.3z M51.8,5.3c0,1-0.2,1.9-0.5,2.7c5.2,1.1,9.9,3.2,14.1,6.2c0.8-1.4,1.9-2.5,3.3-3.2
			c-5-3.7-10.8-6.4-17.1-7.6C51.8,4.1,51.8,4.7,51.8,5.3z M5,52.4c-0.6,0-1.2-0.1-1.8-0.2c1,4.9,2.8,9.4,5.3,13.5
			c0.9-1.2,2.2-2.1,3.7-2.7c-2-3.4-3.5-7.1-4.4-11.1C7,52.2,6,52.4,5,52.4z M22.3,14.3c4-2.9,8.6-5,13.5-6.1
			c-0.3-0.9-0.5-1.9-0.5-2.9c0-0.6,0.1-1.2,0.2-1.7C29.4,4.8,23.8,7.4,19,11C20.4,11.8,21.5,12.9,22.3,14.3z M22.6,74.2
			c-0.6,1.4-1.7,2.6-2.9,3.5c4.6,3.3,9.9,5.7,15.7,6.9c0-0.4-0.1-0.7-0.1-1.1c0-1.2,0.3-2.4,0.7-3.4C31.1,79,26.6,77,22.6,74.2z
			 M83,35.8c0.5,0,1,0.1,1.5,0.1c-0.9-4.6-2.6-9-5-12.9c-0.9,1.3-2.1,2.3-3.6,2.9c1.8,3.2,3.2,6.7,4,10.5C80.8,36,81.9,35.8,83,35.8
			z M79.9,51.8c-0.9,4-2.4,7.8-4.4,11.2c1.5,0.5,2.7,1.5,3.7,2.7c2.5-4.1,4.3-8.6,5.3-13.4c-0.5,0.1-1,0.1-1.5,0.1
			C81.9,52.4,80.8,52.2,79.9,51.8z M65.1,74.2c-4.1,2.9-8.8,5-14,6c0.4,1,0.7,2.1,0.7,3.3c0,0.4,0,0.8-0.1,1.2
			c6-1.2,11.5-3.6,16.3-7.1C66.8,76.8,65.7,75.6,65.1,74.2z"/>
	</g>
	<circle class="st0" cx="72.7" cy="70.8" r="5"/>
	<g>
		<polygon class="st1" points="8.3,110.7 8.3,106.1 79.4,106.1 79.4,110.7 8.3,110.7 		"/>
	</g>
	<circle class="st0" cx="43.8" cy="44.1" r="8.3"/>
	<g>
		<polygon class="st0" points="6.8,44.8 6.8,43.4 80.9,43.4 80.9,44.8 6.8,44.8 		"/>
	</g>
	<g>
		<polygon class="st0" points="43.2,81.2 43.2,7 44.5,7 44.5,81.2 43.2,81.2 		"/>
	</g>
	<g>
		<polygon class="st0" points="15.5,68 71.3,19.2 72.2,20.2 16.4,69 15.5,68 		"/>
	</g>
	<g>
		<polygon class="st0" points="15.9,19.7 16.8,18.7 71.8,68.5 70.9,69.5 15.9,19.7 		"/>
	</g>
	<g>
		<polygon class="st1" points="23.3,108 30.5,82.9 34.9,84.2 27.6,109.3 23.3,108 		"/>
	</g>
	<g>
		<polygon class="st1" points="52.4,84.1 56.8,83 63.1,108.1 58.7,109.2 52.4,84.1 		"/>
	</g>
</g>
</svg>
