<svg id="Layer_1" data-name="Layer 1" xmlns="http://www.w3.org/2000/svg" viewBox="0 0 150 27.68"><defs><style>.cls-1{fill:#fff;}.cls-2{fill:#49b6c2;}</style></defs><title>logo_the-college-fair</title><path class="cls-1" d="M12.76,22.39a6.1,6.1,0,0,1-1.94,4.06,6.36,6.36,0,0,1-4.34,1.43,5.84,5.84,0,0,1-4.71-2.11A8.47,8.47,0,0,1,0,20.13V18.54a9.44,9.44,0,0,1,.83-4.06,6.16,6.16,0,0,1,2.34-2.69,6.52,6.52,0,0,1,3.51-.94,6,6,0,0,1,4.24,1.47,6.17,6.17,0,0,1,1.86,4.08h-2.2a4.76,4.76,0,0,0-1.24-2.88,3.73,3.73,0,0,0-2.66-.89,3.91,3.91,0,0,0-3.28,1.55A7.12,7.12,0,0,0,2.2,18.59V20.2a7.31,7.31,0,0,0,1.13,4.3,3.64,3.64,0,0,0,3.15,1.6,4.21,4.21,0,0,0,2.8-.83,4.58,4.58,0,0,0,1.29-2.87Z" transform="translate(0 -0.2)"/><path class="cls-1" d="M28.73,19.89a10.26,10.26,0,0,1-.82,4.25,6.21,6.21,0,0,1-2.32,2.77,6.4,6.4,0,0,1-3.51,1,6.18,6.18,0,0,1-5.82-3.71A9.83,9.83,0,0,1,15.39,20v-1.2a10.13,10.13,0,0,1,.83-4.22,6.15,6.15,0,0,1,5.83-3.78,6.43,6.43,0,0,1,3.51,1,6.2,6.2,0,0,1,2.34,2.79,10.3,10.3,0,0,1,.82,4.25Zm-2.17-1.07a7.43,7.43,0,0,0-1.18-4.53,3.91,3.91,0,0,0-3.31-1.58,3.86,3.86,0,0,0-3.26,1.58,7.28,7.28,0,0,0-1.22,4.38v1.22a7.44,7.44,0,0,0,1.2,4.49A3.88,3.88,0,0,0,22.08,26a3.86,3.86,0,0,0,3.28-1.54,7.4,7.4,0,0,0,1.2-4.42Z" transform="translate(0 -0.2)"/><path class="cls-1" d="M34.4,25.86h7.85v1.79H32.2V11.07h2.2Z" transform="translate(0 -0.2)"/><path class="cls-1" d="M47.22,25.86h7.86v1.79H45V11.07h2.2Z" transform="translate(0 -0.2)"/><path class="cls-1" d="M67.22,20H60v5.87h8.34v1.79H57.85V11.07H68.27v1.79H60V18.2h7.18Z" transform="translate(0 -0.2)"/><path class="cls-1" d="M83.17,25.47a5,5,0,0,1-2.35,1.8,9.49,9.49,0,0,1-3.51.6,6.81,6.81,0,0,1-3.6-1,6.34,6.34,0,0,1-2.43-2.7,9.33,9.33,0,0,1-.88-4.06V18.71a8.72,8.72,0,0,1,1.75-5.81,6.09,6.09,0,0,1,4.91-2.06,6.29,6.29,0,0,1,4.18,1.33,5.78,5.78,0,0,1,1.93,3.76H81a3.61,3.61,0,0,0-3.92-3.3,3.87,3.87,0,0,0-3.33,1.54,7.54,7.54,0,0,0-1.14,4.47V20a7.06,7.06,0,0,0,1.28,4.44,4.13,4.13,0,0,0,3.45,1.65,7.59,7.59,0,0,0,2.15-.27A3.33,3.33,0,0,0,81,24.9V21.18H77.16V19.39h6Z" transform="translate(0 -0.2)"/><path class="cls-1" d="M96.36,20H89.17v5.87h8.35v1.79H87V11.07H97.4v1.79H89.17V18.2h7.18Z" transform="translate(0 -0.2)"/><path class="cls-2" d="M111.4,21H105v6.6h-4V11.07h11.09v3.09H105V18h6.44Z" transform="translate(0 -0.2)"/><path class="cls-2" d="M122.45,24.55H117l-1,3.1h-4.27l6.08-16.58h3.76l6.12,16.58h-4.29Zm-4.52-3.09h3.56l-1.79-5.75Z" transform="translate(0 -0.2)"/><path class="cls-2" d="M133.47,27.65h-4V11.07h4Z" transform="translate(0 -0.2)"/><path class="cls-2" d="M142.79,21.78h-2.16v5.86h-4V11.07h6.52a7.28,7.28,0,0,1,4.61,1.31,4.43,4.43,0,0,1,1.66,3.7,5.38,5.38,0,0,1-.7,2.87,5,5,0,0,1-2.19,1.84L150,27.48v.17h-4.28Zm-2.16-3.07h2.53a2.27,2.27,0,0,0,1.71-.6,2.32,2.32,0,0,0,.57-1.67,2.34,2.34,0,0,0-.58-1.68,2.25,2.25,0,0,0-1.71-.61h-2.53Z" transform="translate(0 -0.2)"/><path class="cls-1" d="M69.35,1h-1.8V6h-1V1H64.77V.2h4.58Z" transform="translate(0 -0.2)"/><path class="cls-1" d="M77.47,6h-1V3.41H73.89V6h-1V.2h1V2.6h2.58V.2h1Z" transform="translate(0 -0.2)"/><path class="cls-1" d="M84.83,3.4H82.46V5.17h2.77V6H81.46V.2h3.75V1H82.46V2.6h2.37Z" transform="translate(0 -0.2)"/></svg>