<svg id="Layer_1" data-name="Layer 1" xmlns="http://www.w3.org/2000/svg" viewBox="0 0 266.82 203.23"><defs><style>.cls-1,.cls-3{fill:#fff;}.cls-2{fill:#49b6c2;}.cls-3{font-size:18.59px;font-family:Roboto-Medium, Roboto;}</style></defs><title>logo_the-college-fair-portal</title><g id="Full_Logo" data-name="Full Logo"><path class="cls-1" d="M23.79,164.9a10.85,10.85,0,0,1-3.45,7.22,11.32,11.32,0,0,1-7.73,2.54,10.39,10.39,0,0,1-8.37-3.75q-3.15-3.75-3.15-10v-2.83a16.79,16.79,0,0,1,1.47-7.23A11,11,0,0,1,6.72,146,11.59,11.59,0,0,1,13,144.36,10.66,10.66,0,0,1,20.49,147a11,11,0,0,1,3.3,7.26H19.88a8.46,8.46,0,0,0-2.2-5.12A6.64,6.64,0,0,0,13,147.54a7,7,0,0,0-5.84,2.76Q5,153.06,5,158.14V161a13,13,0,0,0,2,7.64,6.48,6.48,0,0,0,5.61,2.84,7.48,7.48,0,0,0,5-1.47q1.73-1.47,2.3-5.11Z" transform="translate(-1.09 -0.73)"/><path class="cls-1" d="M52.19,160.46A18.24,18.24,0,0,1,50.73,168,11,11,0,0,1,46.6,173a11.38,11.38,0,0,1-6.24,1.7A11,11,0,0,1,30,168.06a17.48,17.48,0,0,1-1.53-7.34V158.6A18,18,0,0,1,30,151.08a10.94,10.94,0,0,1,10.37-6.72,11.44,11.44,0,0,1,6.25,1.71,11,11,0,0,1,4.16,5,18.32,18.32,0,0,1,1.46,7.56Zm-3.87-1.9q0-5.25-2.11-8.05a7,7,0,0,0-5.89-2.8,6.87,6.87,0,0,0-5.8,2.8q-2.12,2.81-2.18,7.79v2.17q0,5.08,2.14,8a6.9,6.9,0,0,0,5.88,2.9,6.87,6.87,0,0,0,5.83-2.74q2.07-2.74,2.13-7.87Z" transform="translate(-1.09 -0.73)"/><path class="cls-1" d="M62.28,171.07h14v3.18H58.38V144.77h3.91Z" transform="translate(-1.09 -0.73)"/><path class="cls-1" d="M85.09,171.07h14v3.18H81.18V144.77h3.91Z" transform="translate(-1.09 -0.73)"/><path class="cls-1" d="M120.66,160.62H107.88v10.45h14.84v3.18H104V144.77h18.53v3.18H107.88v9.5h12.78Z" transform="translate(-1.09 -0.73)"/><path class="cls-1" d="M149,170.38a9,9,0,0,1-4.18,3.21,16.88,16.88,0,0,1-6.25,1.06,12.12,12.12,0,0,1-6.4-1.69,11.28,11.28,0,0,1-4.32-4.81,16.6,16.6,0,0,1-1.57-7.23v-2.57q0-6.66,3.11-10.33t8.74-3.67a11.2,11.2,0,0,1,7.43,2.36,10.28,10.28,0,0,1,3.44,6.69h-3.89q-1.09-5.87-7-5.87a6.88,6.88,0,0,0-5.92,2.75q-2,2.75-2,8v2.41a12.56,12.56,0,0,0,2.27,7.89,7.35,7.35,0,0,0,6.14,2.93,13.51,13.51,0,0,0,3.83-.49,5.92,5.92,0,0,0,2.71-1.64v-6.61h-6.83v-3.18H149Z" transform="translate(-1.09 -0.73)"/><path class="cls-1" d="M172.49,160.62H159.71v10.45h14.84v3.18H155.82V144.77h18.53v3.18H159.71v9.5h12.78Z" transform="translate(-1.09 -0.73)"/><path class="cls-2" d="M199.26,162.51H187.8v11.75h-7.11V144.77h19.73v5.49H187.8V157h11.46Z" transform="translate(-1.09 -0.73)"/><path class="cls-2" d="M218.9,168.74h-9.74l-1.7,5.51h-7.59l10.81-29.48h6.68l10.9,29.48h-7.64Zm-8-5.49h6.34L214,153Z" transform="translate(-1.09 -0.73)"/><path class="cls-2" d="M238.51,174.25h-7.09V144.77h7.09Z" transform="translate(-1.09 -0.73)"/><path class="cls-2" d="M255.09,163.82h-3.85v10.43h-7.11V144.77h11.6q5.24,0,8.2,2.33a7.88,7.88,0,0,1,3,6.58,9.57,9.57,0,0,1-1.25,5.1,8.84,8.84,0,0,1-3.9,3.28l6.16,11.9v.3H260.3Zm-3.85-5.47h4.5a4,4,0,0,0,3-1.07,4.12,4.12,0,0,0,1-3,4.17,4.17,0,0,0-1-3,4,4,0,0,0-3-1.09h-4.5Z" transform="translate(-1.09 -0.73)"/><circle class="cls-1" cx="172.22" cy="43.47" r="4.92"/><circle class="cls-1" cx="94.82" cy="43.47" r="4.92"/><circle class="cls-1" cx="133.07" cy="4.92" r="4.92"/><circle class="cls-1" cx="133.07" cy="82.62" r="4.92"/><circle class="cls-1" cx="104.76" cy="17.87" r="4.92"/><circle class="cls-1" cx="161.98" cy="17.87" r="4.92"/><circle class="cls-1" cx="104.76" cy="69.97" r="4.92"/><path class="cls-2" d="M98.69,36.46a36.31,36.31,0,0,1,3.92-10.29,8.26,8.26,0,0,1-3.54-2.9,40.85,40.85,0,0,0-4.94,12.89,8.1,8.1,0,0,1,4.55.3Zm43.7-30.81a8.18,8.18,0,0,1-.47,2.72,36.36,36.36,0,0,1,14,6.19,8.27,8.27,0,0,1,3.27-3.21,40.89,40.89,0,0,0-17-7.53A8.29,8.29,0,0,1,142.39,5.65ZM95.91,52.43a8.24,8.24,0,0,1-1.77-.2,40.86,40.86,0,0,0,5.23,13.39A8.23,8.23,0,0,1,103,63a36.34,36.34,0,0,1-4.35-11A8.2,8.2,0,0,1,95.91,52.43ZM113,14.55A36.36,36.36,0,0,1,126.44,8.5a8.14,8.14,0,0,1-.34-4.56,40.92,40.92,0,0,0-16.36,7.41A8.27,8.27,0,0,1,113,14.55Zm.34,59.52a8.25,8.25,0,0,1-2.92,3.46A40.9,40.9,0,0,0,126,84.43a8,8,0,0,1,.66-4.48A36.36,36.36,0,0,1,113.35,74.08Zm60-38.11a8.24,8.24,0,0,1,1.46.14,40.85,40.85,0,0,0-4.92-12.83,8.27,8.27,0,0,1-3.54,2.9,36.25,36.25,0,0,1,3.95,10.39A8.2,8.2,0,0,1,173.31,36Zm-3.06,15.87A36.31,36.31,0,0,1,165.87,63a8.23,8.23,0,0,1,3.67,2.66,40.86,40.86,0,0,0,5.22-13.33,8.06,8.06,0,0,1-4.52-.46ZM155.57,74.08a36.36,36.36,0,0,1-13.86,6,8,8,0,0,1,.59,4.48,40.88,40.88,0,0,0,16.2-7A8.25,8.25,0,0,1,155.57,74.08Z" transform="translate(-1.09 -0.73)"/><circle class="cls-1" cx="161.98" cy="69.97" r="4.92"/><polygon class="cls-2" points="98.03 109.57 98.03 105.06 168.71 105.06 168.71 109.57 98.03 109.57 98.03 109.57"/><circle class="cls-1" cx="133.37" cy="43.47" r="8.23"/><polygon class="cls-1" points="96.53 44.15 96.53 42.79 170.21 42.79 170.21 44.15 96.53 44.15 96.53 44.15"/><polygon class="cls-1" points="132.69 80.31 132.69 6.63 134.05 6.63 134.05 80.31 132.69 80.31 132.69 80.31"/><polygon class="cls-1" points="105.18 67.2 160.66 18.71 161.56 19.73 106.08 68.22 105.18 67.2 105.18 67.2"/><polygon class="cls-1" points="105.61 19.23 106.52 18.23 161.13 67.7 160.22 68.71 105.61 19.23 105.61 19.23"/><polygon class="cls-2" points="112.93 106.99 120.16 81.99 124.5 83.25 117.27 108.24 112.93 106.99 112.93 106.99"/><polygon class="cls-2" points="141.82 83.17 146.2 82.07 152.52 107.06 148.14 108.17 141.82 83.17 141.82 83.17"/><path class="cls-1" d="M124.45,126.87h-3.2v8.84h-1.77v-8.84H116.3v-1.44h8.15Z" transform="translate(-1.09 -0.73)"/><path class="cls-1" d="M138.9,135.7h-1.78v-4.56h-4.6v4.56h-1.79V125.43h1.79v4.28h4.6v-4.28h1.78Z" transform="translate(-1.09 -0.73)"/><path class="cls-1" d="M152,131.12h-4.22v3.15h4.93v1.44H146V125.43h6.67v1.44h-4.88v2.84H152Z" transform="translate(-1.09 -0.73)"/><rect class="cls-2" y="129.3" width="108.13" height="1.81"/><rect class="cls-2" x="158.69" y="129.3" width="108.13" height="1.81"/><text class="cls-3" transform="translate(87.06 198.19)">P O R T A L</text></g></svg>