<?xml version="1.0" encoding="utf-8"?>
<!-- Generator: Adobe Illustrator 17.1.0, SVG Export Plug-In . SVG Version: 6.00 Build 0)  -->
<!DOCTYPE svg PUBLIC "-//W3C//DTD SVG 1.1//EN" "http://www.w3.org/Graphics/SVG/1.1/DTD/svg11.dtd">
<svg version="1.1" id="Layer_1" xmlns="http://www.w3.org/2000/svg" xmlns:xlink="http://www.w3.org/1999/xlink" x="0px" y="0px"
	 viewBox="24.5 20.4 85 91" enable-background="new 24.5 20.4 85 91" xml:space="preserve">
<g>
	<path fill="#C9C9C9" d="M85,38.3H50.3c-0.8,0-1.5-0.7-1.5-1.5v-5c0-3.6,2.9-6.5,6.5-6.5H80c3.6,0,6.5,2.9,6.5,6.5v5
		C86.5,37.7,85.8,38.3,85,38.3z M51.8,35.3h31.7v-3.5c0-1.9-1.6-3.5-3.5-3.5H55.3c-1.9,0-3.5,1.6-3.5,3.5V35.3z"/>
</g>
<g>
	<path fill="#C9C9C9" d="M50.3,95.4c-0.8,0-1.5-0.7-1.5-1.5V61.2c0-0.8,0.7-1.5,1.5-1.5s1.5,0.7,1.5,1.5v32.7
		C51.8,94.7,51.1,95.4,50.3,95.4z"/>
</g>
<g>
	<path fill="#C9C9C9" d="M67.6,95.4c-0.8,0-1.5-0.7-1.5-1.5V61.2c0-0.8,0.7-1.5,1.5-1.5s1.5,0.7,1.5,1.5v32.7
		C69.1,94.7,68.5,95.4,67.6,95.4z"/>
</g>
<g>
	<path fill="#C9C9C9" d="M85,95.4c-0.8,0-1.5-0.7-1.5-1.5V61.2c0-0.8,0.7-1.5,1.5-1.5s1.5,0.7,1.5,1.5v32.7
		C86.5,94.7,85.8,95.4,85,95.4z"/>
</g>
<g>
	<path fill="#C9C9C9" d="M97.8,50.5H37.5c-3.2,0-5.9-2.9-5.9-6.5v-2.2c0-3.6,2.6-6.5,5.9-6.5h60.3c3.2,0,5.9,2.9,5.9,6.5V44
		C103.6,47.6,101,50.5,97.8,50.5z M37.5,38.3c-1.6,0-2.9,1.6-2.9,3.5V44c0,1.9,1.3,3.5,2.9,3.5h60.3c1.6,0,2.9-1.6,2.9-3.5v-2.2
		c0-1.9-1.3-3.5-2.9-3.5H37.5z"/>
</g>
<g>
	<path fill="#C9C9C9" d="M91.6,106.6H43.7c-3.3,0-6.1-2.9-6.1-6.5V49c0-0.8,0.7-1.5,1.5-1.5h57c0.8,0,1.5,0.7,1.5,1.5v51.1
		C97.6,103.7,94.9,106.6,91.6,106.6z M40.6,50.5v49.6c0,1.9,1.4,3.5,3.1,3.5h47.9c1.7,0,3.1-1.6,3.1-3.5V50.5H40.6z"/>
</g>
<rect id="_x3C_Slice_x3E__8_" x="1.5" y="1.5" fill="none" width="128" height="128"/>
</svg>
